<svg xmlns="http://www.w3.org/2000/svg" width="24" height="24" fill="none"><rect width="19" height="17" x="2.5" y="4.5" stroke="#AEAEAE" rx="1.5"/><rect width="2" height="5" x="6" y="2" fill="#AEAEAE" rx="1"/><rect width="2" height="5" x="16" y="2" fill="#AEAEAE" rx="1"/><path stroke="#AEAEAE" d="M3 9h18.5"/><path fill="#AEAEAE" d="M5 11h2v2H5zM5 14h2v2H5zM5 17h2v2H5zM8 11h2v2H8zM8 14h2v2H8zM8 17h2v2H8zM11 11h2v2h-2zM11 14h2v2h-2zM11 17h2v2h-2zM14 11h2v2h-2zM14 14h2v2h-2zM14 17h2v2h-2zM17 11h2v2h-2zM17 14h2v2h-2z"/></svg>