<svg xmlns="http://www.w3.org/2000/svg" width="26" height="26" fill="none"><path fill="#72B257" d="m8.176 18-.483.129.1.371h.383V18ZM2 2.5a.5.5 0 0 0 0 1v-1Zm20.694 6.74.485.12-.485-.12ZM4.374 3.742l-.483.13.483-.13ZM22.208 9.12l-1.976 8 .97.24 1.977-8-.97-.24Zm-2.462 8.38H8.176v1h11.57v-1Zm-11.086.371L4.858 3.614l-.967.257L7.693 18.13l.967-.258ZM5.706 8.5h16.017v-1H5.706v1Zm-2.298-6H2v1h1.408v-1Zm16.824 14.62a.5.5 0 0 1-.486.38v1a1.5 1.5 0 0 0 1.457-1.14l-.971-.24Zm2.947-7.76a1.5 1.5 0 0 0-1.456-1.86v1a.5.5 0 0 1 .485.62l.971.24ZM4.858 3.614A1.5 1.5 0 0 0 3.408 2.5v1a.5.5 0 0 1 .483.371l.967-.257Z"/><path fill="#72B257" d="M20 21.5a.5.5 0 0 0 0-1v1Zm-11.5-3h10.757v-1H8.5v1Zm11.5 2H8.5v1H20v-1Zm-11.5 0a1 1 0 0 1-1-1h-1a2 2 0 0 0 2 2v-1Zm0-3a2 2 0 0 0-2 2h1a1 1 0 0 1 1-1v-1Z"/><circle cx="11" cy="23" r="1" stroke="#72B257"/><circle cx="18" cy="23" r="1" stroke="#72B257"/><path stroke="#72B257" d="M7 13h15.185M14 8v9.882M11.382 17.823 9.53 7.941M17 17.882 18.235 8"/></svg>