<svg xmlns="http://www.w3.org/2000/svg" width="38" height="38" fill="none"><path fill="#5BB449" d="M5 30h28v1H5zM4 31h30v1H4zM3 32h32v1H3zM8 14h22v1H8zM8.5 16h3l.5 13H8l.5-13ZM17.5 16h3l.5 13h-4l.5-13ZM26.5 16h3l.5 13h-4l.5-13ZM8 15.5a.5.5 0 0 1 .5-.5h3a.5.5 0 0 1 0 1h-3a.5.5 0 0 1-.5-.5ZM17 15.5a.5.5 0 0 1 .5-.5h3a.5.5 0 0 1 0 1h-3a.5.5 0 0 1-.5-.5ZM26 15.5a.5.5 0 0 1 .5-.5h3a.5.5 0 0 1 0 1h-3a.5.5 0 0 1-.5-.5ZM7 29h6v1H7zM16 29h6v1h-6zM25 29h6v1h-6z"/><path stroke="#5BB449" stroke-width="2" d="m19 6 13 6-.01 1.25H6.01v-1.166L19 6Z"/></svg>