<svg xmlns="http://www.w3.org/2000/svg" width="38" height="38" fill="none"><path fill="#fff" stroke="#5BB449" d="M10.244 8.595a.869.869 0 0 1 .578-.471l2.021-.495a28 28 0 0 1 13.314 0l2.02.495a.869.869 0 0 1 .58.471 26.067 26.067 0 0 1 2.237 7.366L31 16H8l.006-.039a26.068 26.068 0 0 1 2.238-7.366Z"/><path fill="#5BB449" stroke="#5BB449" d="M4 17.968a2 2 0 0 1 1.852-1.994l7.386-.547a78.015 78.015 0 0 1 11.524 0l7.386.547A2 2 0 0 1 34 17.968V23a2 2 0 0 1-2 2H6a2 2 0 0 1-2-2v-5.032Z"/><rect width="4" height="7" x="7" y="23" fill="#5BB449" rx="2"/><rect width="5" height="7" x="27" y="23" fill="#5BB449" rx="2"/><path fill="#5BB449" d="M31 14.22a1 1 0 0 1 1.196-.98l3 .6a1 1 0 0 1 .804.98V15a1 1 0 0 1-1 1h-3a1 1 0 0 1-1-1v-.78ZM2 14.847a1 1 0 0 1 .836-.986l4-.667A1 1 0 0 1 8 14.18V15a1 1 0 0 1-1 1H3a1 1 0 0 1-1-1v-.153Z"/><rect width="4" height="2" x="8" y="21" fill="#fff" rx="1"/><rect width="5" height="2" x="26" y="21" fill="#fff" rx="1"/><path fill="#fff" d="M13 21.617c0-.356.258-.66.609-.719a32.793 32.793 0 0 1 10.782 0 .729.729 0 0 1 .609.72V22a1 1 0 0 1-1 1H14a1 1 0 0 1-1-1v-.383Z"/></svg>