<svg xmlns="http://www.w3.org/2000/svg" width="38" height="38" fill="none"><path stroke="#5BB449" stroke-width="2" d="M3 18.615a1 1 0 0 1 1-1h10.85a3 3 0 0 0 3-3V14a1 1 0 0 1 1-1H27a1 1 0 0 1 1 1v20a1 1 0 0 1-1 1H4a1 1 0 0 1-1-1V18.615Z"/><rect width="10" height="3" x="15" y="22" fill="#5BB449" rx="1.5"/><path stroke="#5BB449" stroke-width="2" d="M8 18V8h15v5.238"/><path stroke="#5BB449" stroke-width="2" d="M5 18V2h21v10.839M31.4 13H33a2 2 0 0 1 2 2v18a2 2 0 0 1-2 2h-7"/><path stroke="#5BB449" stroke-width="2" d="M27 4h3a2 2 0 0 1 2 2v27a2 2 0 0 1-2 2h-3"/></svg>