<svg xmlns="http://www.w3.org/2000/svg" width="38" height="38" fill="none"><path stroke="#5BB449" stroke-linecap="round" stroke-width="2" d="M20 35H10a2 2 0 0 1-2-2V9a2 2 0 0 1 2-2h18a2 2 0 0 1 2 2v7.108"/><path stroke="#5BB449" stroke-width="2" d="M23 3h-8a2 2 0 0 0-2 2v2h12V5a2 2 0 0 0-2-2Z"/><rect width="16" height="2" x="11" y="11" fill="#5BB449" rx="1"/><rect width="15" height="2" x="11" y="15" fill="#5BB449" rx="1"/><rect width="9" height="2" x="11" y="19" fill="#5BB449" rx="1"/><rect width="14" height="12" x="23" y="25" fill="#5BB449" rx="3"/><path stroke="#5BB449" stroke-linecap="round" stroke-width="2" d="M34 25.619V24a4 4 0 0 0-4-4v0a4 4 0 0 0-4 4v2"/><path fill="#fff" fill-rule="evenodd" d="M30.88 32.063a1.778 1.778 0 1 0-1.422 0v1.926a.711.711 0 0 0 1.422 0v-1.925Z" clip-rule="evenodd"/></svg>