<svg xmlns="http://www.w3.org/2000/svg" width="38" height="38" fill="none"><path fill="#fff" stroke="#5BB449" stroke-width="2" d="M6 7a1 1 0 0 1 1-1h16a1 1 0 0 1 1 1v28H6V7Z"/><path fill="#fff" stroke="#5BB449" stroke-width="2" d="M17 11a1 1 0 0 1 1-1h13a1 1 0 0 1 1 1v24H17V11Z"/><path fill="#5BB449" d="M20 13h3v3h-3zM26 13h3v3h-3zM20 18h3v3h-3zM26 18h3v3h-3zM20 23h3v3h-3zM20 28h3v3h-3zM26 23h3v3h-3zM9 9h4v4H9zM9 15h4v4H9zM9 21h4v4H9zM9 27h4v4H9zM25 28h4v7h-4zM8 4a1 1 0 0 1 1-1h13a1 1 0 0 1 1 1v2H8V4Z"/></svg>