<svg xmlns="http://www.w3.org/2000/svg" width="291" height="234" fill="none"><path fill="#DDEBDC" d="M190.45 61.33c8.48-4.88 15.566-11.636 20.641-19.675 3.149-4.986 6.734-10.519 9.669-14.66 10.413-14.693 48.248-14.366 48.595 14.366.347 28.732-49.318 44.002-28.463 76.401 22.91 35.588 12.149 59.096-13.884 67.911-26.033 8.816-105.522-21.222-165.919 4.898-60.397 26.12-64.477-18.429-52.76-36.894 21.752-34.283 104.133-20.57 115.934-42.119 8.524-15.563 46.016-38.62 66.187-50.228Z"/><path fill="#C0DAB8" d="M191.515 170.665s8.227-46.276 15.868-26.817c7.641 19.458 3.658 18.371 3.658 18.371s9.408-45.797 18.572-29.68c9.165 16.117.543 25.817.543 25.817s14.321-44.037 23.936-37.501c9.615 6.536-2.916 21.48-2.916 21.48s25.307-23.543 35.715-16.183c13.602 9.618-25.849 22.672-25.849 22.672s31.662 4.584 21.762 10.335c-9.9 5.751-28.273.369-28.273.369s18.362 4.54 6.032 10.098c-12.331 5.557-21.409 2.142-21.409 2.142s21.671 4.034 14.436 11.92c-7.235 7.887-46.566 5.138-46.566 5.138l-15.509-18.161ZM68.76 208.205s-36.786-5.818-21.318-11.221c15.468-5.403 14.604-2.587 14.604-2.587s-36.406-6.654-23.593-13.135c12.812-6.48 20.522-.383 20.522-.383s-35.006-10.129-29.81-16.928c5.196-6.8 17.075 2.062 17.075 2.062s-18.715-17.897-12.865-25.258c7.645-9.62 18.023 18.28 18.023 18.28s3.644-22.391 8.215-15.39c4.572 7.001.294 19.995.294 19.995s3.609-12.986 8.026-4.266c4.418 8.72 1.702 15.141 1.702 15.141s3.207-15.326 9.477-10.21c6.269 5.117 4.084 32.932 4.084 32.932L68.76 208.205Z"/><path fill="#AACE9F" d="M208.565 118.329s-7.486-27.627 1.848-18.577c9.334 9.049 6.831 9.366 6.831 9.366s-6.704-27.634 2.608-20.794c9.311 6.84 7.037 14.226 7.037 14.226s-3.507-27.792 3.557-26.382c7.064 1.409 3.978 12.614 3.978 12.614s7.962-18.94 15.683-17.257c10.089 2.2-8.492 18.582-8.492 18.582s18.841-4.775 14.825.712c-4.018 5.487-15.66 6.745-15.66 6.745s11.417-1.724 5.995 4.218c-5.422 5.941-11.373 6.142-11.373 6.142s13.13-2.77 11.156 3.287c-1.975 6.058-24.611 13.628-24.611 13.628l-13.382-6.51Z"/><path fill="#909090" stroke="#2D2D2D" stroke-miterlimit="10" stroke-width="3" d="M217.021 191.653H101.774c-4.18 0-7.57-3.186-7.57-7.114V27.919c0-3.93 3.39-7.115 7.57-7.115h115.247c4.18 0 7.568 3.186 7.568 7.114v156.62c.001 3.929-3.388 7.115-7.568 7.115Z"/><path fill="#fff" stroke="#2D2D2D" stroke-miterlimit="10" stroke-width="2.97" d="M211.752 35.443H105.56v144.871h106.192V35.443Z"/><path fill="#B3B3B2" stroke="#2D2D2D" stroke-miterlimit="10" stroke-width="3" d="M178.016 19.478v-4.496c0-2.552-2.201-4.62-4.916-4.62h-28.904c-2.715 0-4.916 2.068-4.916 4.62v4.51a.053.053 0 0 1-.046.052c-7.451 1.304-13.092 7.442-13.092 14.823v.492c0 1.84 1.587 3.332 3.545 3.332h58.006c1.958 0 3.546-1.492 3.546-3.333v-.49c0-7.41-5.685-13.566-13.178-14.838a.054.054 0 0 1-.045-.052Z"/><path fill="#fff" stroke="#2D2D2D" stroke-miterlimit="10" stroke-width="3" d="M139.195 99.055h-18.252c-1.405 0-2.543-1.07-2.543-2.39V79.51c0-1.32 1.138-2.39 2.543-2.39h18.252c1.404 0 2.543 1.07 2.543 2.39v17.154c0 1.32-1.139 2.39-2.543 2.39ZM198.811 72.43h-18.252c-1.405 0-2.543-1.07-2.543-2.39V50.885c0-1.32 1.138-2.39 2.543-2.39h18.252c1.404 0 2.543 1.07 2.543 2.39v19.157c0 1.32-1.139 2.39-2.543 2.39ZM139.195 131.665h-18.252c-1.405 0-2.543-1.07-2.543-2.39V112.12c0-1.32 1.138-2.39 2.543-2.39h18.252c1.404 0 2.543 1.07 2.543 2.39v17.155c0 1.32-1.139 2.39-2.543 2.39Z"/><path fill="#6B6C6A" d="M95.222 46.954v133.95s7.639-5.955 7.724-17.506c.181-24.643-5.623-32.053-2.345-46.074 5.576-23.853-.832-63.094-5.38-70.37Z"/><path fill="#fff" stroke="#2D2D2D" stroke-miterlimit="10" stroke-width="3" d="M139.195 163.637h-18.252c-1.405 0-2.543-1.07-2.543-2.39v-17.155c0-1.319 1.138-2.389 2.543-2.389h18.252c1.404 0 2.543 1.07 2.543 2.389v17.155c0 1.32-1.139 2.39-2.543 2.39Z"/><path fill="#2D2D2D" d="M200.577 82.086h-50.038c-.741 0-1.342-.565-1.342-1.261 0-.697.601-1.261 1.342-1.261h50.038c.741 0 1.342.564 1.342 1.26 0 .697-.601 1.262-1.342 1.262ZM200.577 87.703h-50.038c-.741 0-1.342-.565-1.342-1.261 0-.697.601-1.262 1.342-1.262h50.038c.741 0 1.342.565 1.342 1.261 0 .697-.601 1.262-1.342 1.262ZM166.842 53.46h-47.281c-.741 0-1.342-.565-1.342-1.261 0-.697.601-1.261 1.342-1.261h47.281c.741 0 1.342.564 1.342 1.26 0 .697-.601 1.262-1.342 1.262ZM166.842 59.076h-47.281c-.741 0-1.342-.565-1.342-1.261 0-.697.601-1.261 1.342-1.261h47.281c.741 0 1.342.564 1.342 1.26 0 .697-.601 1.262-1.342 1.262ZM178.483 93.319H150.54c-.742 0-1.342-.565-1.342-1.261 0-.697.6-1.262 1.342-1.262h27.943c.741 0 1.341.565 1.341 1.262 0 .696-.6 1.26-1.341 1.26ZM146.117 65.117h-26.342c-.741 0-1.342-.564-1.342-1.26 0-.697.601-1.262 1.342-1.262h26.341c.741 0 1.342.565 1.342 1.261.001.697-.6 1.261-1.341 1.261ZM200.577 115.718h-50.038c-.741 0-1.342-.564-1.342-1.261s.601-1.261 1.342-1.261h50.038c.741 0 1.342.564 1.342 1.261s-.601 1.261-1.342 1.261ZM178.483 121.335H150.54c-.742 0-1.342-.565-1.342-1.261 0-.697.6-1.262 1.342-1.262h27.943c.741 0 1.341.565 1.341 1.262 0 .696-.6 1.261-1.341 1.261ZM200.577 147.797h-50.038c-.741 0-1.342-.565-1.342-1.262 0-.696.601-1.261 1.342-1.261h50.038c.741 0 1.342.565 1.342 1.261 0 .697-.601 1.262-1.342 1.262ZM200.577 159.587h-50.038c-.741 0-1.342-.565-1.342-1.261 0-.697.601-1.261 1.342-1.261h50.038c.741 0 1.342.564 1.342 1.261 0 .696-.601 1.261-1.342 1.261ZM178.483 153.692H150.54c-.742 0-1.342-.565-1.342-1.261 0-.697.6-1.262 1.342-1.262h27.943c.741 0 1.341.565 1.341 1.262 0 .696-.6 1.261-1.341 1.261Z"/><path stroke="#5EAB54" stroke-linecap="round" stroke-miterlimit="10" stroke-width="6" d="m123.825 151.758 5.858 5.506 17.225-16.191M123.825 120.104l5.858 5.506 17.225-16.19M130.764 91.55l16.144-15.165"/><path fill="#7B7B7B" stroke="#2D2D2D" stroke-miterlimit="10" stroke-width="1.5" d="M103.2 225.988H78.887l.015-10.197h11.386c5.992 0 12.912 4.565 12.912 10.197Z"/><path fill="#fff" stroke="#2D2D2D" stroke-miterlimit="10" stroke-width="1.5" d="M93.113 225.989h10.058c0-2.983-1.94-5.667-4.657-7.531 0 0-.852 4.237-5.401 7.531Z"/><path fill="#fff" stroke="#2D2D2D" stroke-miterlimit="10" stroke-width="1.5" d="M103.115 225.988h-24.2v-1.689l23.974-.036.226 1.725Z"/><path fill="#5DAB54" stroke="#2D2D2D" stroke-miterlimit="10" stroke-width="1.5" d="m62.386 42.407 65.448 43.972a.438.438 0 0 1 .101.093l5.015 6.424c.247.317-.062.75-.468.656l-8.427-1.96a.45.45 0 0 1-.152-.067L58.467 47.56a.404.404 0 0 1-.104-.585l3.4-4.471a.467.467 0 0 1 .623-.097Z"/><path fill="#909090" stroke="#2D2D2D" stroke-miterlimit="10" stroke-width="1.5" d="M94.713 179.471s-.558 21.949 1.486 29.488c2.043 7.54 4.182 7.712-8.545 8.043-8.626.223-10.402-.419-10.402-.419s-.65-13.069-.836-16.587c-.185-3.519 14.767-22.535 18.297-20.525Z"/><path fill="#6B6C6A" d="M92.266 182.571s-9.129 12.41-9.56 19.695c-.43 7.286.78 14.3.78 14.3s-3.8.012-5.759-.364l-.877-16.658 15.416-16.973Z"/><path stroke="#fff" stroke-linecap="round" stroke-miterlimit="10" stroke-width=".839" d="M94.681 217.69s-2.797-4.488-5.213-2.576c-2.417 1.912 2.51 2.356 4.746 2.947 2.114.559 4.362-3.145 2.374-3.386-2.116-.255-1.907 3.015-1.907 3.015Z"/><path fill="#7B7B7B" stroke="#2D2D2D" stroke-miterlimit="10" stroke-width="1.5" d="M67.401 228.774 49.14 213.689l7.173-7.651 8.552 7.065c4.501 3.718 6.492 11.441 2.536 15.671Z"/><path fill="#fff" stroke="#2D2D2D" stroke-miterlimit="10" stroke-width="1.5" d="m59.825 222.516 7.555 6.241c2.096-2.24 2.522-5.461 1.792-8.546 0 0-3.617 2.654-9.347 2.305Z"/><path fill="#fff" stroke="#2D2D2D" stroke-miterlimit="10" stroke-width="1.5" d="M67.338 228.721 49.16 213.706l1.187-1.268 18.032 14.847-1.042 1.436Z"/><path fill="#909090" stroke="#2D2D2D" stroke-miterlimit="10" stroke-width="1.5" d="M65.905 141.543s7.12 21.669 8.984 27.086c1.865 5.418-21.868 29.636-18.817 38.718 0 0 8.816 7.966 12.376 8.285 0 0 14.461-22.735 19.382-28.414 7.063-8.153 11.556-13.012 12.234-18.907.678-5.896-5.634-29.227-5.465-34.167 0 0-26.151 4.372-28.694 7.399Z"/><path fill="#5DAB54" stroke="#2D2D2D" stroke-miterlimit="10" stroke-width="1.5" d="M67.305 102.385c-.398-.705-6.311 10.871-7.657 19.332-1.418 8.921.61 20.882.95 24.547.339 3.664 8.628-.807 16.427-3.356 7.797-2.55 18.647-3.984 21.529-2.709 2.882 1.275-1.724-16.931-1.966-20.644-1.13-17.367-16.364-17.396-19.077-18.671-2.712-1.274-10.206 1.501-10.206 1.501Z"/><path fill="#fff" stroke="#2D2D2D" stroke-miterlimit="10" stroke-width="1.5" d="M122.333 90.338c.76-.721 4.276-7.016 2.678-8.359-1.597-1.342-5.044-3.596-6.156-1.719-1.112 1.878-2.039 6.32-2.039 6.32s-12.574 12.637-19.28 14.791l-6.705 2.153-2.063 17.958s6.24-.537 9.123-1.672c2.883-1.135 10.075-3.755 17.442-16.059 4.47-7.465 7-13.413 7-13.413Z"/><path fill="#498E4E" d="M76.474 120.323s4.051 4.168 8.18 4.209c4.127.04 7.748-1.643 9.663.371 1.915 2.015.532 14.345.532 14.345s2.222-.031 3.96.579c0 0 .381-.48.268-2.549-.113-2.069-1.789-10.71-2.146-12.509-.398-2.014-.68-4.087-.68-4.087s-12.997 2.019-19.777-.359Z"/><path fill="#5DAB54" d="M71.655 117.886s6.9 5.638 21.798 3.575c.534-.074.92-.522.89-1.028-.178-3.018.075-13.09 2.832-19.046.663-1.432-2.139 1.351-6.297 1.482-7.329.232-10.945-1.422-10.945-1.422"/><path stroke="#2D2D2D" stroke-linecap="round" stroke-miterlimit="10" stroke-width="1.5" d="M71.655 117.886s6.9 5.638 21.798 3.575c.534-.074.92-.522.89-1.028-.178-3.018.075-13.09 2.832-19.046.663-1.432-2.139 1.351-6.297 1.482-7.329.232-10.945-1.422-10.945-1.422"/><path fill="#fff" stroke="#2D2D2D" stroke-miterlimit="10" stroke-width="1.5" d="M82.094 86.806c1.925 4.388 1.764 4.834 1.507 5.667-.91 2.956-9.43 2.015-12.276 1.74-2.846-.276-9.313-2.082-11.394-6.434-2.08-4.351-.773-10.989 4.93-12.388 5.705-1.398 6.376-.165 6.376-.165s3.202.36 6.42 4.24c.4.483 1.32 2.166 1.542 2.446 0 0 .85 1.676 3.965 2.69.975.318-1.07 2.204-1.07 2.204Z"/><path fill="#2D2D2D" d="M77.692 83.589c.357-.195.382-.782.055-1.311-.327-.53-.881-.8-1.238-.605-.357.195-.382.781-.055 1.31.327.53.882.8 1.238.606Z"/><path fill="#fff" d="M77.558 82.761c.116-.063.089-.309-.06-.55-.148-.24-.362-.383-.478-.32-.115.062-.088.308.06.549.15.24.363.384.478.321Z"/><path stroke="#2D2D2D" stroke-linecap="round" stroke-miterlimit="10" stroke-width=".838" d="M78.111 82.37s-1.634-2.216-1.998.091c-.138.872.064 1.475.064 1.475"/><path fill="#fff" d="M76.812 80.388s-1.43-1.016-1.751.606c-.286 1.445-.283 1.594-.283 1.594"/><path stroke="#2D2D2D" stroke-linecap="round" stroke-miterlimit="10" stroke-width=".885" d="M76.812 80.388s-1.43-1.016-1.751.606c-.286 1.445-.283 1.594-.283 1.594"/><path fill="#C0DAB8" d="M77.201 85.68c.326-.577.363-1.158.08-1.299-.281-.14-.774.213-1.1.789-.326.576-.362 1.158-.08 1.299.281.14.774-.213 1.1-.789Z"/><path stroke="#fff" stroke-linecap="round" stroke-miterlimit="10" stroke-width=".839" d="M93.304 218.061c.043.299-.933 1.673-.255 1.395.679-.279 1.918-.986 1.918-.986s-.286.757-.666 1.65c-.771 1.816 2.987-1.403 2.987-1.403"/><path fill="#2D2D2D" d="M159.255 17.558c1.093 0 1.978-.833 1.978-1.86 0-1.026-.885-1.858-1.978-1.858-1.092 0-1.978.832-1.978 1.859 0 1.026.886 1.859 1.978 1.859Z"/><path fill="#5DAB54" stroke="#2D2D2D" stroke-miterlimit="10" stroke-width="1.5" d="m61.267 42.976-2.401 3.283-2.959-1.911a.663.663 0 0 1-.188-.958l1.57-2.147a.762.762 0 0 1 1.02-.178l2.958 1.911Z"/><path stroke="#fff" stroke-linecap="round" stroke-miterlimit="10" stroke-width=".839" d="M65.536 216.68c-.178.251-1.876.678-1.17.889.705.211 2.132.45 2.132.45s-.747.39-1.66.826c-1.855.885 3.23.799 3.23.799M66.832 217.255s1.05-5.106-2.106-5.169c-3.158-.063.23 3.327 1.494 5.159 1.195 1.731 5.486.343 4.161-1.071-1.41-1.505-3.55 1.081-3.55 1.081Z"/><path fill="#8B8B8B" d="M169.236 19.43h-27.703c-.308 0-.558.234-.558.524 0 .29.25.525.558.525h27.703c.308 0 .558-.235.558-.525 0-.29-.249-.524-.558-.524Z"/><path fill="#fff" stroke="#2D2D2D" stroke-miterlimit="10" stroke-width="1.5" d="M68.294 89.572s1.02 9.16-.65 12.016c-1.15 1.969-.189 1.938 1.385 1.78 2.374-.239 6.287-2.192 10.214-1.886 1.6.125-2.417-2.936-1.91-4.28.505-1.343-9.039-7.63-9.039-7.63Z"/><path fill="#2D2D2D" d="M69.976 80.983s5.332-.366 6.747-3.697c1.414-3.33-1.386-5.295-3.197-5.012-1.811.283-4.917.37-6.865.939-1.95.569-5.614 2.819-7.761 4.195-1.639 1.05.268 2.086.268 2.086s-1.75.399-2.13 2.975c-.379 2.575-1.304 4.927.428 6.336 1.732 1.41 3.307 1.842 4.495 3.636 1.189 1.793 3.167 4.107 5.498 3.952 2.332-.154 4.26-3.56 4.26-3.56s.378.486 1.265 1.877c.848 1.327 2.183 3.145 5.538 2.39 3.356-.756 5.414-2.48 5.82-4.555.405-2.062-1.582-5.462-1.609-5.503-.001-.002-.368-.066-3.086 1.202-1.323.617-2.397 1.5-4.106.789-1.05-.436-4.421-2.635-4.704-5.876-.141-1.62-.861-2.174-.861-2.174Z"/><path fill="#fff" d="M69.627 85.205s2.54 2.734 2.365 3.363c-.176.629-1.796.518-2.462-.297-.364-.445-1.292-2.54-1.006-2.934.286-.395.814-.346 1.103-.132Z"/><path stroke="#fff" stroke-linecap="round" stroke-miterlimit="10" stroke-width=".463" d="M59.652 78.19s5.045 2.091 9.971 1.358c3.323-.494 6.83-2.857 6.578-4.774"/><path stroke="#fff" stroke-linecap="round" stroke-miterlimit="10" stroke-width=".463" d="M61.481 76.585s5.526 2.07 8.779 1.137c3.253-.933 5.086-4.111 5.086-4.111"/><path stroke="#fff" stroke-linecap="round" stroke-miterlimit="10" stroke-width=".463" d="M63.655 75.252s2.915 1.372 6.067.666c3.153-.706 3.978-2.856 3.978-2.856"/><path stroke="#fff" stroke-linecap="round" stroke-miterlimit="10" stroke-width=".463" d="M65.867 74.163s1.864.57 3.638-.011c1.113-.365 2.208-1.107 2.208-1.107M65.338 81.744s.944 2.063.256 3.323c-1.44 2.64.75 5.773 1.587 6.73 1.32 1.508 1.088 3.332 1.088 3.332"/><path stroke="#fff" stroke-linecap="round" stroke-miterlimit="10" stroke-width=".463" d="M67.429 81.744s.846 1.59.16 2.85c-1.441 2.639.32 5.257 1.157 6.213 1.32 1.509 1.272 3.373 1.272 3.373M62.784 81.229s.516 1.055.424 2.7c-.093 1.644-.38 3.885.93 5.607 2.267 2.98 2.775 4.797 2.92 5.928"/><path stroke="#fff" stroke-linecap="round" stroke-miterlimit="10" stroke-width=".463" d="M60.887 80.626s.39 2.264.02 4.311c-.43 2.366 1.002 5.179 2.54 6.368 1.466 1.136 2.193 3.904 2.193 3.904M59.379 80.284s.05 3.234-.35 4.344c-.4 1.11-.58 2.608.706 3.987 1.295 1.388 1.527 2.144 1.527 2.144"/><path stroke="#fff" stroke-linecap="round" stroke-miterlimit="10" stroke-width=".405" d="M74.608 89.972s.268 2.7 2.397 3.887c1.145.638 2.439-1.386 4.483-1.614 1.671-.186 2.07-.8 2.064-1.737"/><path stroke="#fff" stroke-linecap="round" stroke-miterlimit="10" stroke-width=".424" d="M73.066 90.353s.67 2.881 2.156 4.172c1.486 1.291 2.947 1.361 4.536.086 1.998-1.603 4.153-2.37 4.153-2.37"/><path stroke="#fff" stroke-linecap="round" stroke-miterlimit="10" stroke-width=".904" d="M82.196 89.92s-.431.906-2.071-.754"/><path stroke="#2D2D2D" stroke-miterlimit="10" stroke-width="3" d="M180.194 71.647c0-4.986 4.301-9.029 9.607-9.029 5.305 0 9.606 4.043 9.606 9.03M189.603 60.202c2.294 0 4.153-1.748 4.153-3.904 0-2.156-1.859-3.904-4.153-3.904-2.294 0-4.154 1.748-4.154 3.904 0 2.156 1.86 3.904 4.154 3.904Z"/></svg>